<svg width="20" height="21" viewBox="0 0 20 21" fill="none" xmlns="http://www.w3.org/2000/svg">
<g clip-path="url(#clip0)">
<path d="M14.5345 12.0089C14.5 11.9744 14.4483 11.9744 14.3966 11.9917L14.2759 12.0434C13.6897 12.3365 13.0345 12.4744 12.3793 12.4744C12.3448 12.4744 12.3276 12.4917 12.3276 12.5089C12.2586 12.8193 12 13.0434 11.6724 13.0434H10.3276V11.9227H10.3448C10.431 11.94 10.5 11.94 10.5862 11.9572C11.1552 12.0434 11.431 12.302 11.5517 12.4227L11.569 12.44C11.5862 12.4572 11.6207 12.4572 11.6379 12.44C11.6552 12.4227 11.6724 12.4055 11.7069 12.3882C11.9138 12.2503 12.3966 11.9572 12.3966 10.4055C12.3966 8.81927 11.1897 7.7503 11.0517 7.68134L10.3448 7.62961H10.3276V7.18134C10.4655 7.09513 10.569 6.93996 10.569 6.7503C10.569 6.47444 10.3621 6.2503 10.0862 6.2503C9.81034 6.2503 9.60345 6.47444 9.60345 6.7503C9.60345 6.92272 9.68966 7.07789 9.84483 7.1641V7.54341L8.82759 7.43996C8.77586 7.43996 8.74138 7.49168 8.77586 7.52617C8.94828 7.80203 9.41379 8.6641 9.44828 9.9572C9.48276 11.1641 9.2931 11.7331 9.2069 11.94C9.18966 11.9572 9.18966 11.9744 9.2069 11.9917C9.22414 12.0089 9.24138 12.0089 9.25862 12.0089C9.37931 11.9917 9.58621 11.9572 9.84483 11.94V13.0606H8.72414C8.36207 13.0606 8.05172 12.7503 8.05172 12.3882V12.1124C8.05172 12.0779 8.03448 12.0606 8 12.0606H5.91379C5.89655 12.0606 5.86207 12.0779 5.86207 12.1124C5.86207 12.1641 5.86207 12.2158 5.86207 12.2675C5.86207 13.0434 6.08621 13.7503 6.46552 14.371C6.53448 14.4744 6.65517 14.5262 6.75862 14.4744L6.98276 14.371C7.15517 14.2848 7.36207 14.2848 7.55172 14.371L7.7931 14.4744C7.96552 14.5606 8.17241 14.5606 8.36207 14.4744L8.60345 14.371C8.7931 14.2848 8.98276 14.2848 9.17241 14.371L9.41379 14.4744C9.60345 14.5606 9.7931 14.5606 9.98276 14.4744L10.2241 14.371C10.4138 14.2848 10.6034 14.2848 10.7931 14.371L11.0345 14.4744C11.2241 14.5606 11.4138 14.5606 11.6034 14.4744L11.8448 14.371C12.0345 14.2848 12.2241 14.2848 12.4138 14.371L12.6552 14.4744C12.8103 14.5434 12.9828 14.4572 13.069 14.302C13.2069 14.0779 13.3276 13.8193 13.4138 13.5779C13.6034 13.0089 13.9483 12.4744 14.4828 12.2158C14.5345 12.1986 14.5517 12.1469 14.5517 12.0951C14.5862 12.0779 14.569 12.0262 14.5345 12.0089ZM6.84483 11.6296H8.81034C8.84483 11.6296 8.86207 11.6124 8.86207 11.5779V9.43996C8.86207 9.42272 8.84483 9.40548 8.82759 9.38823L7.86207 8.93996C7.84483 8.92272 7.81035 8.93996 7.7931 8.97444L6.7931 11.5434C6.77586 11.5951 6.81035 11.6296 6.84483 11.6296ZM10 0.71582C4.48276 0.71582 0 5.19858 0 10.7158C0 16.2331 4.48276 20.7158 10 20.7158C15.5172 20.7158 20 16.2331 20 10.7158C20 5.19858 15.5172 0.71582 10 0.71582ZM9.96552 17.9917C5.98276 17.9917 2.75862 14.7675 2.75862 10.7675C2.75862 6.78479 5.98276 3.54341 9.96552 3.54341C13.9483 3.54341 17.1724 6.78479 17.1724 10.7675C17.1552 14.7675 13.931 17.9917 9.96552 17.9917ZM14.3966 11.9917L14.2759 12.0434C13.6897 12.3365 13.0345 12.4744 12.3793 12.4744C12.3448 12.4744 12.3276 12.4917 12.3276 12.5089C12.2586 12.8193 12 13.0434 11.6724 13.0434H10.3276V11.9227H10.3448C10.431 11.94 10.5 11.94 10.5862 11.9572C11.1552 12.0434 11.431 12.302 11.5517 12.4227L11.569 12.44C11.5862 12.4572 11.6207 12.4572 11.6379 12.44C11.6552 12.4227 11.6724 12.4055 11.7069 12.3882C11.9138 12.2503 12.3966 11.9572 12.3966 10.4055C12.3966 8.81927 11.1897 7.7503 11.0517 7.68134L10.3448 7.62961H10.3276V7.18134C10.4655 7.09513 10.569 6.93996 10.569 6.7503C10.569 6.47444 10.3621 6.2503 10.0862 6.2503C9.81034 6.2503 9.60345 6.47444 9.60345 6.7503C9.60345 6.92272 9.68966 7.07789 9.84483 7.1641V7.54341L8.82759 7.43996C8.77586 7.43996 8.74138 7.49168 8.77586 7.52617C8.94828 7.80203 9.41379 8.6641 9.44828 9.9572C9.48276 11.1641 9.2931 11.7331 9.2069 11.94C9.18966 11.9572 9.18966 11.9744 9.2069 11.9917C9.22414 12.0089 9.24138 12.0089 9.25862 12.0089C9.37931 11.9917 9.58621 11.9572 9.84483 11.94V13.0606H8.72414C8.36207 13.0606 8.05172 12.7503 8.05172 12.3882V12.1124C8.05172 12.0779 8.03448 12.0606 8 12.0606H5.91379C5.89655 12.0606 5.86207 12.0779 5.86207 12.1124C5.86207 12.1641 5.86207 12.2158 5.86207 12.2675C5.86207 13.0434 6.08621 13.7503 6.46552 14.371C6.53448 14.4744 6.65517 14.5262 6.75862 14.4744L6.98276 14.371C7.15517 14.2848 7.36207 14.2848 7.55172 14.371L7.7931 14.4744C7.96552 14.5606 8.17241 14.5606 8.36207 14.4744L8.60345 14.371C8.7931 14.2848 8.98276 14.2848 9.17241 14.371L9.41379 14.4744C9.60345 14.5606 9.7931 14.5606 9.98276 14.4744L10.2241 14.371C10.4138 14.2848 10.6034 14.2848 10.7931 14.371L11.0345 14.4744C11.2241 14.5606 11.4138 14.5606 11.6034 14.4744L11.8448 14.371C12.0345 14.2848 12.2241 14.2848 12.4138 14.371L12.6552 14.4744C12.8103 14.5434 12.9828 14.4572 13.069 14.302C13.2069 14.0779 13.3276 13.8193 13.4138 13.5779C13.6034 13.0089 13.9483 12.4744 14.4828 12.2158C14.5345 12.1986 14.5517 12.1469 14.5517 12.0951C14.5517 12.0606 14.5345 12.0089 14.5 11.9917C14.5 11.9917 14.4483 11.9744 14.3966 11.9917ZM6.84483 11.6296H8.81034C8.84483 11.6296 8.86207 11.6124 8.86207 11.5779V9.43996C8.86207 9.42272 8.84483 9.40548 8.82759 9.38823L7.86207 8.93996C7.84483 8.92272 7.81035 8.93996 7.7931 8.97444L6.7931 11.5434C6.77586 11.5951 6.81035 11.6296 6.84483 11.6296Z" fill="white"/>
<path d="M8.82684 9.40615L7.86133 8.95787C7.84409 8.94063 7.8096 8.95787 7.79236 8.99236L6.79236 11.5613C6.77512 11.5958 6.8096 11.6303 6.84409 11.6303H8.8096C8.84409 11.6303 8.86133 11.613 8.86133 11.5786V9.44063C8.86133 9.42339 8.84409 9.40615 8.82684 9.40615ZM14.5337 12.0096C14.4993 11.9751 14.4475 11.9751 14.3958 11.9924L14.2751 12.0441C13.6889 12.3372 13.0337 12.4751 12.3786 12.4751C12.3441 12.4751 12.3268 12.4924 12.3268 12.5096C12.2579 12.8199 11.9993 13.0441 11.6717 13.0441H10.3268V11.9234H10.3441C10.4303 11.9406 10.4993 11.9406 10.5855 11.9579C11.1544 12.0441 11.4303 12.3027 11.551 12.4234L11.5682 12.4406C11.5855 12.4579 11.6199 12.4579 11.6372 12.4406C11.6544 12.4234 11.6717 12.4061 11.7062 12.3889C11.9131 12.251 12.3958 11.9579 12.3958 10.4061C12.3958 8.81994 11.1889 7.75098 11.051 7.68201L10.3441 7.63029H10.3268V7.18201C10.4648 7.0958 10.5682 6.94063 10.5682 6.75098C10.5682 6.47511 10.3613 6.25098 10.0855 6.25098C9.8096 6.25098 9.60271 6.47511 9.60271 6.75098C9.60271 6.92339 9.68891 7.07856 9.84409 7.16477V7.54408L8.82684 7.44063C8.77512 7.44063 8.74064 7.49236 8.77512 7.52684C8.94753 7.8027 9.41305 8.66477 9.44753 9.95787C9.48202 11.1648 9.29236 11.7337 9.20616 11.9406C9.18891 11.9579 9.18891 11.9751 9.20616 11.9924C9.2234 12.0096 9.24064 12.0096 9.25788 12.0096C9.37857 11.9924 9.58547 11.9579 9.84409 11.9406V13.0613H8.7234C8.36133 13.0613 8.05098 12.751 8.05098 12.3889V12.113C8.05098 12.0786 8.03374 12.0613 7.99926 12.0613H5.91305C5.89581 12.0613 5.86133 12.0786 5.86133 12.113C5.86133 12.1648 5.86133 12.2165 5.86133 12.2682C5.86133 13.0441 6.08547 13.751 6.46478 14.3717C6.53374 14.4751 6.65443 14.5268 6.75788 14.4751L6.98202 14.3717C7.15443 14.2855 7.36133 14.2855 7.55098 14.3717L7.79236 14.4751C7.96478 14.5613 8.17167 14.5613 8.36133 14.4751L8.60271 14.3717C8.79236 14.2855 8.98202 14.2855 9.17167 14.3717L9.41305 14.4751C9.60271 14.5613 9.79236 14.5613 9.98202 14.4751L10.2234 14.3717C10.4131 14.2855 10.6027 14.2855 10.7924 14.3717L11.0337 14.4751C11.2234 14.5613 11.4131 14.5613 11.6027 14.4751L11.8441 14.3717C12.0337 14.2855 12.2234 14.2855 12.4131 14.3717L12.6544 14.4751C12.8096 14.5441 12.982 14.4579 13.0682 14.3027C13.2062 14.0786 13.3268 13.8199 13.4131 13.5786C13.6027 13.0096 13.9475 12.4751 14.482 12.2165C14.5337 12.1993 14.551 12.1475 14.551 12.0958C14.5855 12.0786 14.5682 12.0268 14.5337 12.0096Z" fill="white"/>
</g>
<defs>
<clipPath id="clip0">
<rect width="20" height="20" fill="white" transform="translate(0 0.71582)"/>
</clipPath>
</defs>
</svg>
